<?xml version="1.0" encoding="UTF-8" standalone="no"?>
<!DOCTYPE svg PUBLIC "-//W3C//DTD SVG 1.1//EN"
 "http://www.w3.org/Graphics/SVG/1.1/DTD/svg11.dtd">
<!-- Generated by graphviz version 2.40.1 (20161225.0304)
 -->
<!-- Title: g Pages: 1 -->
<svg width="118pt" height="260pt"
 viewBox="0.00 0.00 118.00 260.00" xmlns="http://www.w3.org/2000/svg" xmlns:xlink="http://www.w3.org/1999/xlink">
<g id="graph0" class="graph" transform="scale(1 1) rotate(0) translate(4 256)">
<title>g</title>
<polygon fill="#ffffff" stroke="transparent" points="-4,4 -4,-256 114,-256 114,4 -4,4"/>
<!-- 0 -->
<g id="node1" class="node">
<title>0</title>
<ellipse fill="none" stroke="#000000" cx="82" cy="-234" rx="27" ry="18"/>
<text text-anchor="middle" x="82" y="-230.3" font-family="Times,serif" font-size="14.00" fill="#000000">0</text>
</g>
<!-- 1 -->
<g id="node2" class="node">
<title>1</title>
<ellipse fill="none" stroke="#000000" cx="27" cy="-162" rx="27" ry="18"/>
<text text-anchor="middle" x="27" y="-158.3" font-family="Times,serif" font-size="14.00" fill="#000000">1</text>
</g>
<!-- 0&#45;&#45;1 -->
<g id="edge1" class="edge">
<title>0&#45;&#45;1</title>
<path fill="none" stroke="#000000" d="M69.5196,-217.6621C60.5186,-205.8788 48.4207,-190.0416 39.431,-178.2733"/>
</g>
<!-- 2 -->
<g id="node3" class="node">
<title>2</title>
<ellipse fill="none" stroke="#000000" cx="47" cy="-90" rx="27" ry="18"/>
<text text-anchor="middle" x="47" y="-86.3" font-family="Times,serif" font-size="14.00" fill="#000000">2</text>
</g>
<!-- 0&#45;&#45;2 -->
<g id="edge2" class="edge">
<title>0&#45;&#45;2</title>
<path fill="none" stroke="#000000" d="M78.6348,-215.9728C75.1268,-197.733 69.2733,-168.769 63,-144 59.9272,-131.8674 55.9272,-118.3674 52.6954,-107.9006"/>
</g>
<!-- 3 -->
<g id="node4" class="node">
<title>3</title>
<ellipse fill="none" stroke="#000000" cx="83" cy="-18" rx="27" ry="18"/>
<text text-anchor="middle" x="83" y="-14.3" font-family="Times,serif" font-size="14.00" fill="#000000">3</text>
</g>
<!-- 0&#45;&#45;3 -->
<g id="edge3" class="edge">
<title>0&#45;&#45;3</title>
<path fill="none" stroke="#000000" d="M87.3773,-215.9485C95.584,-185.9512 109.437,-123.9909 101,-72 98.9738,-59.5142 94.4738,-46.0142 90.4804,-35.6357"/>
</g>
<!-- 1&#45;&#45;2 -->
<g id="edge4" class="edge">
<title>1&#45;&#45;2</title>
<path fill="none" stroke="#000000" d="M31.9438,-144.2022C35.0208,-133.1252 38.9644,-118.928 42.0437,-107.8425"/>
</g>
<!-- 2&#45;&#45;2 -->
<g id="edge5" class="edge">
<title>2&#45;&#45;2</title>
<path fill="none" stroke="#000000" d="M66.895,-102.4321C79.688,-105.6753 92,-101.5313 92,-90 92,-78.4688 79.688,-74.3247 66.895,-77.5679"/>
</g>
<!-- 2&#45;&#45;3 -->
<g id="edge6" class="edge">
<title>2&#45;&#45;3</title>
<path fill="none" stroke="#000000" d="M55.7146,-72.5708C61.3747,-61.2506 68.7216,-46.5568 74.3657,-35.2687"/>
</g>
</g>
</svg>
